<?xml version="1.0" encoding="UTF-8" standalone="no"?>
<!DOCTYPE svg PUBLIC "-//W3C//DTD SVG 1.1//EN" "http://www.w3.org/Graphics/SVG/1.1/DTD/svg11.dtd">
<svg width="100%" height="100%" viewBox="0 0 42 242" version="1.1" xmlns="http://www.w3.org/2000/svg" xmlns:xlink="http://www.w3.org/1999/xlink" xml:space="preserve" xmlns:serif="http://www.serif.com/" style="fill-rule:evenodd;clip-rule:evenodd;stroke-linejoin:round;stroke-miterlimit:2;">
    <g id="icon3" transform="matrix(0.154008,0,0,0.154008,1.34628,201.252)">
        <g transform="matrix(1,0,0,1,182.807,90.9872)">
            <path d="M0,23.446C-1.177,23.446 -2.354,22.997 -3.252,22.099L-17.05,8.3C-18.847,6.504 -18.847,3.593 -17.05,1.796C-15.254,0 -12.343,0 -10.546,1.796L0,12.343L10.546,1.796C12.343,0 15.254,0 17.05,1.796C18.847,3.593 18.847,6.504 17.05,8.3L3.252,22.099C2.354,22.997 1.177,23.446 0,23.446" style="fill:white;fill-rule:nonzero;"/>
        </g>
        <g transform="matrix(1,0,0,1,182.807,63.8392)">
            <path d="M0,50.594C-2.542,50.594 -4.599,48.535 -4.599,45.995L-4.599,13.799C-4.599,11.263 -6.661,9.199 -9.199,9.199L-32.196,9.199C-34.738,9.199 -36.795,7.14 -36.795,4.6C-36.795,2.06 -34.738,0 -32.196,0L-9.199,0C-1.59,0 4.599,6.19 4.599,13.799L4.599,45.995C4.599,48.535 2.542,50.594 0,50.594" style="fill:white;fill-rule:nonzero;"/>
        </g>
        <g transform="matrix(1,0,0,1,82.1567,85.8573)">
            <path d="M0,133.482C-1.076,133.482 -2.158,133.105 -3.032,132.341C-4.941,130.666 -5.129,127.76 -3.454,125.851L36.535,80.283C37.736,78.909 38.228,77.337 38.082,75.329C37.424,66.337 24.881,53.828 20.102,49.767C19.163,48.968 18.584,47.822 18.494,46.596C18.404,45.366 18.811,44.153 19.624,43.225L38.19,22.07C39.284,20.823 39.802,19.35 39.688,17.812C39.558,16.047 38.614,14.371 36.957,12.965C33.772,10.268 29.842,10.324 27.392,13.118L-11.168,57.053C-12.13,58.153 -13.551,58.751 -15.015,58.602C-16.471,58.481 -17.78,57.673 -18.546,56.428L-29.779,38.121C-31.634,35.1 -34.545,35.365 -35.969,36.007C-37.04,36.483 -38.709,37.701 -37.878,40.49C-28.982,70.388 -26.247,81.28 -30.478,86.1L-39.052,95.869C-40.732,97.774 -43.636,97.962 -45.545,96.278C-47.449,94.603 -47.634,91.697 -45.956,89.788L-37.739,80.427C-36.923,75.958 -42.787,56.249 -46.695,43.115C-48.644,36.571 -45.841,30.339 -39.719,27.606C-34.154,25.12 -26.253,26.278 -21.937,33.31L-13.967,46.3L20.48,7.05C26.251,0.472 35.897,0 42.906,5.949C46.434,8.943 48.552,12.916 48.862,17.136C49.156,21.131 47.822,25.039 45.103,28.138L29.519,45.896C35.41,51.533 46.432,63.48 47.256,74.646C47.582,79.093 46.266,83.135 43.447,86.347L3.459,131.914C2.551,132.952 1.278,133.482 0,133.482" style="fill:white;fill-rule:nonzero;"/>
        </g>
        <g transform="matrix(1,0,0,1,28.3719,217.686)">
            <path d="M0,-26.208L42.574,9.9L50.789,0.54L8.213,-35.573L0,-26.208ZM43.045,20.931C41.994,20.931 40.937,20.572 40.072,19.84L-9.518,-22.219C-10.456,-23.019 -11.038,-24.16 -11.128,-25.391C-11.22,-26.617 -10.814,-27.834 -9.998,-28.759L4.283,-45.037C5.936,-46.928 8.799,-47.139 10.715,-45.513L60.307,-3.449C61.248,-2.649 61.827,-1.509 61.917,-0.278C62.009,0.953 61.6,2.166 60.787,3.091L46.504,19.364C45.597,20.401 44.325,20.931 43.045,20.931" style="fill:white;fill-rule:nonzero;"/>
        </g>
        <g transform="matrix(1,0,0,1,171.309,17.8455)">
            <path d="M0,133.383C-15.218,133.383 -30.103,128.123 -41.909,118.57C-43.883,116.971 -44.191,114.078 -42.592,112.102C-40.999,110.13 -38.1,109.82 -36.122,111.419C-25.948,119.652 -13.12,124.184 0,124.184C31.702,124.184 57.493,98.393 57.493,66.692C57.493,34.99 31.702,9.199 0,9.199C-27.659,9.199 -51.422,28.897 -56.507,56.037C-56.972,58.533 -59.377,60.183 -61.874,59.712C-64.372,59.244 -66.015,56.841 -65.548,54.344C-59.651,22.856 -32.084,0 0,0C36.773,0 66.691,29.919 66.691,66.692C66.691,103.464 36.773,133.383 0,133.383" style="fill:white;fill-rule:nonzero;"/>
        </g>
    </g>
    <g id="icon2" transform="matrix(0.154218,0,0,0.154218,1.31942,101.188)">
        <g transform="matrix(1,0,0,1,113.837,158.489)">
            <path d="M0,-131.303C-2.532,-131.303 -4.593,-129.242 -4.593,-126.71L-4.593,-34.847C-4.593,-32.315 -2.532,-30.254 0,-30.254L55.115,-30.254C56.335,-30.254 57.501,-29.77 58.363,-28.909L87.267,-0.004L87.267,-25.661C87.267,-28.198 89.321,-30.254 91.86,-30.254L110.233,-30.254C112.767,-30.254 114.826,-32.315 114.826,-34.847L114.826,-126.71C114.826,-129.242 112.767,-131.303 110.233,-131.303L0,-131.303ZM87.258,9.186C84.872,9.186 82.535,8.253 80.772,6.491L53.213,-21.068L0,-21.068C-7.598,-21.068 -13.779,-27.249 -13.779,-34.847L-13.779,-126.71C-13.779,-134.308 -7.598,-140.489 0,-140.489L110.233,-140.489C117.831,-140.489 124.012,-134.308 124.012,-126.71L124.012,-34.847C124.012,-27.249 117.831,-21.068 110.233,-21.068L96.453,-21.068L96.453,-0.004C96.453,3.723 94.229,7.056 90.784,8.482C89.64,8.958 88.442,9.186 87.258,9.186" style="fill:white;fill-rule:nonzero;"/>
        </g>
        <g transform="matrix(1,0,0,1,49.5178,100.676)">
            <path d="M0,137.785C-1.159,137.785 -2.326,137.561 -3.443,137.103C-6.923,135.677 -9.171,132.308 -9.171,128.527L-9.171,110.235L-18.357,110.235C-26.471,110.235 -32.136,105.135 -32.136,97.828L-32.136,13.916C-32.136,6.244 -25.955,0 -18.357,0L36.761,0C39.297,0 41.354,2.057 41.354,4.593C41.354,7.13 39.297,9.187 36.761,9.187L-18.357,9.187C-20.889,9.187 -22.95,11.308 -22.95,13.916L-22.95,97.828C-22.95,100.488 -20.452,101.049 -18.357,101.049L-4.577,101.049C-2.041,101.049 0.016,103.103 0.016,105.642L0.016,128.527L24.208,102.516C25.078,101.583 26.298,101.049 27.574,101.049L64.319,101.049C66.894,101.049 68.913,99.031 68.913,96.456L68.913,50.525C68.913,47.986 70.969,45.931 73.506,45.931C76.042,45.931 78.099,47.986 78.099,50.525L78.099,96.456C78.099,104.054 71.918,110.235 64.319,110.235L29.577,110.235L6.63,134.95C4.797,136.812 2.415,137.785 0,137.785" style="fill:white;fill-rule:nonzero;"/>
        </g>
        <g transform="matrix(1,0,0,1,191.918,41.5448)">
            <path d="M0,72.913C-1.888,72.913 -3.656,71.74 -4.324,69.863L-22.966,17.67L-41.607,69.863C-42.455,72.247 -45.097,73.492 -47.474,72.644C-49.865,71.789 -51.112,69.161 -50.255,66.772L-27.29,2.469C-26.639,0.641 -24.908,-0.579 -22.966,-0.579C-21.023,-0.579 -19.292,0.641 -18.642,2.469L4.324,66.772C5.181,69.161 3.934,71.789 1.543,72.644C1.036,72.826 0.511,72.913 0,72.913" style="fill:white;fill-rule:nonzero;"/>
        </g>
        <g transform="matrix(1,0,0,1,187.002,91.4902)">
            <path d="M0,9.186L-36.13,9.186C-38.669,9.186 -40.724,7.129 -40.724,4.593C-40.724,2.056 -38.669,0 -36.13,0L0,0C2.539,0 4.593,2.056 4.593,4.593C4.593,7.129 2.539,9.186 0,9.186" style="fill:white;fill-rule:nonzero;"/>
        </g>
        <g transform="matrix(1,0,0,1,69.8953,178.715)">
            <path d="M0,-45.887C-4.147,-45.887 -7.379,-44.685 -9.879,-42.218C-13.676,-38.464 -15.769,-31.619 -15.769,-22.944C-15.769,-12.564 -12.97,-0.158 0.361,-0.001C4.699,-0.014 7.942,-1.153 10.494,-3.674C14.291,-7.429 16.383,-14.273 16.383,-22.944C16.383,-33.328 13.584,-45.735 0.253,-45.887L0,-45.887ZM0.612,9.186L0.253,9.186C-15.531,8.997 -24.955,-3.01 -24.955,-22.944C-24.955,-34.252 -21.974,-43.178 -16.336,-48.749C-12.012,-53.023 -6.457,-55.049 0.361,-55.073C16.145,-54.892 25.569,-42.882 25.569,-22.944C25.569,-11.636 22.589,-2.714 16.951,2.861C12.703,7.06 7.206,9.186 0.612,9.186" style="fill:white;fill-rule:nonzero;"/>
        </g>
        <g transform="matrix(1,0,0,1,90.8716,164.532)">
            <path d="M0,23.414C-1.175,23.414 -2.35,22.965 -3.247,22.068L-17.027,8.289C-18.821,6.495 -18.821,3.588 -17.027,1.794C-15.233,0 -12.326,0 -10.532,1.794L3.247,15.573C5.042,17.368 5.042,20.274 3.247,22.068C2.35,22.965 1.175,23.414 0,23.414" style="fill:white;fill-rule:nonzero;"/>
        </g>
    </g>
    <g id="icon1" transform="matrix(0.16568,0,0,0.16568,-0.289874,0.26714)">
        <g transform="matrix(1,0,0,1,207.303,22.1907)">
            <path d="M0,178.495C-3.146,178.495 -5.697,175.944 -5.697,172.798L-5.697,11.394L-24.686,11.394C-27.832,11.394 -30.383,8.843 -30.383,5.697C-30.383,2.551 -27.832,0 -24.686,0L0,0C3.146,0 5.697,2.551 5.697,5.697L5.697,172.798C5.697,175.944 3.146,178.495 0,178.495" style="fill:white;fill-rule:nonzero;"/>
        </g>
        <g transform="matrix(1,0,0,1,49.6969,22.1908)">
            <path d="M0,192.421C-3.146,192.421 -5.697,189.87 -5.697,186.724L-5.697,30.886C-5.697,13.856 8.159,0 25.188,0L90.196,0C93.342,0 95.893,2.551 95.893,5.697C95.893,8.843 93.342,11.394 90.196,11.394L25.188,11.394C14.44,11.394 5.697,20.137 5.697,30.886L5.697,186.724C5.697,189.87 3.146,192.421 0,192.421" style="fill:white;fill-rule:nonzero;"/>
        </g>
        <g transform="matrix(1,0,0,1,66.8997,223.701)">
            <path d="M0,-23.015C-6.344,-23.015 -11.506,-17.853 -11.506,-11.507C-11.506,-5.162 -6.344,-0.001 0,-0.001L134.707,-0.001L134.707,-23.015L0,-23.015ZM140.403,11.393L0,11.393C-12.627,11.393 -22.9,1.12 -22.9,-11.507C-22.9,-24.134 -12.627,-34.408 0,-34.408L140.403,-34.408C143.549,-34.408 146.1,-31.858 146.1,-28.712L146.1,5.696C146.1,8.842 143.549,11.393 140.403,11.393" style="fill:white;fill-rule:nonzero;"/>
        </g>
        <g transform="matrix(1,0,0,1,79.4444,49.1309)">
            <path d="M0,126.514C-1.9,126.514 -3.442,124.973 -3.442,123.072L-3.442,3.442C-3.442,1.541 -1.9,0 0,0C1.901,0 3.442,1.541 3.442,3.442L3.442,123.072C3.442,124.973 1.901,126.514 0,126.514" style="fill:white;fill-rule:nonzero;"/>
        </g>
        <g transform="matrix(1,0,0,1,206.036,209.271)">
            <path d="M0,6.883L-132.92,6.883C-134.821,6.883 -136.362,5.342 -136.362,3.441C-136.362,1.541 -134.821,0 -132.92,0L0,0C1.902,0 3.442,1.541 3.442,3.441C3.442,5.342 1.902,6.883 0,6.883" style="fill:white;fill-rule:nonzero;"/>
        </g>
        <g transform="matrix(1,0,0,1,161.729,49.1658)">
            <path d="M0,34.739C1.408,34.739 2.746,35.364 3.647,36.446L14.244,49.161L14.244,-23.177L-14.24,-23.177L-14.24,49.159L-3.646,36.448C-2.746,35.366 -1.408,34.739 0,34.739M-18.986,67.019C-19.527,67.019 -20.075,66.927 -20.602,66.735C-22.481,66.055 -23.732,64.27 -23.732,62.272L-23.732,-27.924C-23.732,-30.546 -21.607,-32.671 -18.986,-32.671L18.989,-32.671C21.611,-32.671 23.735,-30.546 23.735,-27.924L23.735,62.272C23.735,64.27 22.485,66.055 20.606,66.735C18.731,67.41 16.623,66.844 15.343,65.312L0,46.902L-15.339,65.31C-16.26,66.414 -17.605,67.019 -18.986,67.019" style="fill:white;fill-rule:nonzero;"/>
        </g>
    </g>
</svg>
